<svg xmlns="http://www.w3.org/2000/svg" viewBox="0 0 24 24">
  <path d="M13.559 24h-2.841a.483.483 0 01-.483-.483v-5.074H3.652a.66.66 0 01-.577-.338.66.66 0 01.017-.671L12.9 2.52H4.003a.483.483 0 01-.483-.483V.483C3.52.216 3.736 0 4.003 0h8.403c.267 0 .483.216.483.483v4.7a.66.66 0 01-.017.148L4.89 18.443h5.828V13.37c0-.267.216-.483.483-.483h2.841c.267 0 .483.216.483.483v5.074h6.583a.66.66 0 01.577.338.66.66 0 01-.017.671L11.86 4.367h.001l-.002.003v-.003L20.475 21h-6.433v2.517a.483.483 0 01-.483.483z" fill="#6C1CD3"/>
  <rect width="24" height="24" rx="4.8" fill="#6C1CD3"/>
  <path d="M17.85 7.65H8.55l5.7-3.9h-7.5v2.1h4.05l-5.7 3.9v2.1h9.3l-5.7 3.9H16.2v-2.1h-4.05l5.7-3.9V7.65z" fill="#fff"/>
</svg>