<svg xmlns="http://www.w3.org/2000/svg" viewBox="0 0 200 80">
  <rect width="200" height="80" rx="12" fill="#000"/>
  <!-- Apple logo -->
  <g transform="translate(24, 14) scale(0.065)">
    <path d="M394.5 318.4c-1 21.3-3.6 42.5-11.2 62.6-12 32-33.1 56.8-62.1 74.6-10.5 6.4-21.8 11-34.2 12.5-18.5 2.2-35.2-2.5-51.2-11.4-12.8-7.1-26.2-7.3-39.2-.4-16.4 8.7-33.2 13.4-52.2 10.1-10.2-1.8-19.6-5.8-28.2-11.6-36.3-24.4-57.3-58.4-66.8-100.2-6.4-28.2-7-56.7-1.2-85.1 7.8-38.2 27.3-68 60.1-87.6 21.6-12.9 45.1-17.5 70.1-13.1 12.8 2.3 24.7 7.4 36.5 13 10.3 4.9 20.1 4.4 30.2-.2 16.5-7.6 33.7-12.4 52.3-10.8 24.1 2.1 44.5 12.1 60.7 30.1 3 3.3 5.7 6.9 9.2 11.2-30.3 19.3-45.5 45.5-43.2 81.6 2 31.4 17.6 54.1 44 70.2-.1.5-.2 1-.4 1.5zM325.6 55.4c-1.1 23.1-9.4 42.2-25.6 57.8-16 15.4-34.8 23.1-57 22-1.2-22.3 7.8-41.6 24-57.5 16.6-16.3 36.3-24.8 58.6-22.3z" fill="#fff"/>
  </g>
  <!-- "Cash" text -->
  <text x="78" y="56" font-family="-apple-system, SF Pro Display, Helvetica Neue, Arial, sans-serif" font-size="38" font-weight="600" fill="#fff" letter-spacing="-0.5">Cash</text>
</svg>