<svg xmlns="http://www.w3.org/2000/svg" viewBox="0 0 24 24" fill="none">
  <path d="M23.59 3.47A5.1 5.1 0 0020.55.42C19.55.15 18.4 0 17 0H7C5.6 0 4.45.15 3.45.42A5.1 5.1 0 00.41 3.47C.14 4.47 0 5.6 0 7v10c0 1.4.14 2.53.41 3.53a5.1 5.1 0 003.04 3.05c1 .27 2.15.42 3.55.42h10c1.4 0 2.55-.15 3.55-.42a5.1 5.1 0 003.04-3.05c.27-1 .41-2.13.41-3.53V7c0-1.4-.14-2.53-.41-3.53z" fill="#00D632"/>
  <path d="M15.11 10.24c-.89-.3-1.82-.54-2.42-.72-.6-.18-1.42-.42-1.42-1.14 0-.72.72-1.2 1.68-1.2.96 0 1.86.48 2.28 1.02l1.62-1.62a4.93 4.93 0 00-3.06-1.56l.36-1.56h-2.04l-.36 1.5c-1.92.24-3.18 1.44-3.18 3.06 0 1.68 1.26 2.46 2.7 2.94.78.24 1.56.48 2.16.66.78.24 1.14.54 1.14 1.08 0 .78-.78 1.32-1.86 1.32-1.2 0-2.16-.54-2.76-1.32L8.32 13.4a5.24 5.24 0 003.48 1.92l-.36 1.5h2.04l.36-1.44c2.1-.18 3.42-1.44 3.42-3.18 0-1.44-.78-2.34-2.16-2.82z" fill="#fff"/>
</svg>