<svg xmlns="http://www.w3.org/2000/svg" viewBox="0 0 24 24">
  <path d="M7.076 21.337H2.47a.641.641 0 01-.633-.74L4.944.901C5.026.382 5.474 0 5.998 0h7.46c2.57 0 4.578.543 5.69 1.81 1.01 1.15 1.304 2.42 1.012 4.287-.023.143-.047.288-.077.437-.983 5.05-4.349 6.797-8.647 6.797h-2.19c-.524 0-.968.382-1.05.9l-1.12 7.106z" fill="#253B80"/>
  <path d="M20.16 6.534c-.68 4.392-3.476 6.063-7.572 6.063H11.15c-.525 0-.97.382-1.05.9L8.96 20.86a.378.378 0 00.373.437h2.81c.458 0 .847-.334.92-.788l.037-.196.728-4.617.047-.255a.93.93 0 01.919-.787h.578c3.754 0 6.692-1.525 7.55-5.936.358-1.843.173-3.38-.773-4.464a3.72 3.72 0 00-1.003-.787c.057.37.082.747.082 1.132 0 .238-.012.472-.035.7z" fill="#179BD7"/>
  <path d="M19.064 6.097a7.62 7.62 0 00-.94-.253 12.048 12.048 0 00-1.904-.14h-5.77a.926.926 0 00-.92.788l-1.228 7.775-.036.227a1.057 1.057 0 011.05-.9h2.19c4.298 0 7.664-1.746 8.647-6.797.029-.15.054-.294.077-.437a4.394 4.394 0 00-1.165-.263z" fill="#222D65"/>
</svg>